<?xml version="1.0" encoding="utf-8"?>
<!-- Generator: Adobe Illustrator 25.4.1, SVG Export Plug-In . SVG Version: 6.00 Build 0)  -->
<svg version="1.1" id="Layer_1" xmlns="http://www.w3.org/2000/svg" xmlns:xlink="http://www.w3.org/1999/xlink" x="0px" y="0px"
	 viewBox="0 0 1200 1200" style="enable-background:new 0 0 1200 1200;" xml:space="preserve">
<style type="text/css">
	.st0{fill:#000080;}
	.st1{fill:#F78028;}
	.st2{fill:#FFFFFF;}
	.st3{fill:none;stroke:#FFFFFF;stroke-width:4;stroke-miterlimit:10;}
	.st4{fill:none;stroke:#FFFFFF;stroke-width:3.0823;stroke-miterlimit:10;}
	.st5{fill:#231F20;}
	.st6{fill:none;stroke:#000000;stroke-width:3.0823;stroke-miterlimit:10;}
	.st7{fill:none;stroke:#000000;stroke-width:4;stroke-miterlimit:10;}
	.st8{fill:#040081;}
	.st9{fill:#FF8109;}
	.st10{fill:none;stroke:#040081;stroke-width:3.0823;stroke-miterlimit:10;}
	.st11{font-family:'Hind-Medium';}
	.st12{font-size:30.9485px;}
	.st13{fill:none;stroke:#231F20;stroke-width:3;stroke-miterlimit:10;}
</style>
<g>
	<g>
		<path class="st0" d="M227.84,767.46v25.6c-11.21-7.03-23.93-10.54-38.15-10.54c-9.2,0-16.44,2.05-21.71,6.15
			c-5.27,4.1-7.91,9.5-7.91,16.19c0,6.69,2.59,12.05,7.78,16.06c5.18,4.02,13.13,8.37,23.84,13.05c7.03,3.01,12.5,5.61,16.44,7.78
			c3.93,2.18,8.45,5.23,13.55,9.16c5.1,3.93,8.87,8.62,11.29,14.05c2.42,5.44,3.64,11.67,3.64,18.7c0,14.89-5.27,26.6-15.81,35.13
			c-10.54,8.53-24.18,12.8-40.91,12.8c-18.57,0-33.97-3.6-46.18-10.79v-26.85c13.21,9.87,28.52,14.81,45.93,14.81
			c9.2,0,16.48-2.13,21.83-6.4c5.35-4.27,8.03-10.16,8.03-17.69c0-4.52-1.59-8.66-4.77-12.42c-3.18-3.76-6.61-6.61-10.29-8.53
			c-3.68-1.92-9.2-4.56-16.56-7.91c-4.35-2.01-7.4-3.43-9.16-4.27c-1.76-0.84-4.64-2.34-8.66-4.52c-4.02-2.17-6.99-4.02-8.91-5.52
			c-1.93-1.51-4.31-3.6-7.15-6.27c-2.85-2.67-4.89-5.35-6.15-8.03c-1.25-2.67-2.43-5.81-3.51-9.41c-1.09-3.6-1.63-7.49-1.63-11.67
			c0-14.39,5.23-25.76,15.68-34.13c10.45-8.36,23.97-12.55,40.53-12.55C204.16,759.42,217.13,762.1,227.84,767.46z"/>
		<path class="st0" d="M262.97,832.95v-23.84c9.87-5.69,22.92-8.53,39.15-8.53c33.29,0,49.94,16.15,49.94,48.43v80.81h-24.34v-15.06
			c-6.52,10.71-17.99,16.06-34.38,16.06c-12.05,0-21.71-3.47-28.99-10.41c-7.28-6.94-10.92-15.77-10.92-26.48
			c0-12.21,4.6-21.71,13.8-28.48c9.2-6.78,22.08-10.16,38.65-10.16h21.08v-7.28c0-8.7-2.09-15.27-6.27-19.7
			c-4.18-4.43-11.13-6.65-20.83-6.65C286.31,821.66,274.01,825.43,262.97,832.95z M326.97,873.11h-19.07
			c-9.37,0-16.44,1.84-21.21,5.52c-4.77,3.68-7.15,8.37-7.15,14.05c0,5.86,1.84,10.46,5.52,13.8c3.68,3.35,9.03,5.02,16.06,5.02
			c8.03,0,14.34-2.22,18.95-6.65c4.6-4.43,6.9-10.25,6.9-17.44V873.11z"/>
		<path class="st0" d="M403.51,752.4v72.02c7.19-15.72,20.33-23.59,39.4-23.59c12.38,0,22.34,3.85,29.86,11.54
			c7.53,7.7,11.29,18.41,11.29,32.12v85.33h-24.59v-80.31c0-8.7-2.22-15.43-6.65-20.2c-4.43-4.77-10.25-7.15-17.44-7.15
			c-8.37,0-15.77,3.18-22.21,9.54c-6.44,6.36-9.66,16.06-9.66,29.11v69.01h-24.59V752.4H403.51z"/>
		<path class="st0" d="M513.92,832.95v-23.84c9.87-5.69,22.92-8.53,39.15-8.53c33.29,0,49.94,16.15,49.94,48.43v80.81h-24.34v-15.06
			c-6.52,10.71-17.99,16.06-34.38,16.06c-12.05,0-21.71-3.47-28.99-10.41c-7.28-6.94-10.92-15.77-10.92-26.48
			c0-12.21,4.6-21.71,13.8-28.48c9.2-6.78,22.08-10.16,38.65-10.16h21.08v-7.28c0-8.7-2.09-15.27-6.27-19.7
			c-4.18-4.43-11.13-6.65-20.83-6.65C537.26,821.66,524.97,825.43,513.92,832.95z M577.92,873.11h-19.07
			c-9.37,0-16.44,1.84-21.21,5.52c-4.77,3.68-7.15,8.37-7.15,14.05c0,5.86,1.84,10.46,5.52,13.8c3.68,3.35,9.03,5.02,16.06,5.02
			c8.03,0,14.34-2.22,18.95-6.65c4.6-4.43,6.9-10.25,6.9-17.44V873.11z"/>
		<path class="st0" d="M654.46,802.59v20.33c7.19-14.72,19.16-22.08,35.89-22.08c19.07,0,31.28,8.2,36.64,24.59
			c3.51-7.86,8.61-13.93,15.31-18.19c6.69-4.27,14.22-6.4,22.59-6.4c13.05,0,22.96,3.85,29.74,11.54
			c6.78,7.7,10.16,18.32,10.16,31.87v85.58h-24.59v-80.31c0-18.23-7.36-27.35-22.08-27.35c-7.36,0-13.93,3.26-19.7,9.79
			c-5.77,6.52-8.66,16.15-8.66,28.86v69.01h-24.59v-80.31c0-18.23-7.45-27.35-22.34-27.35c-7.2,0-13.72,3.26-19.57,9.79
			c-5.86,6.52-8.78,16.15-8.78,28.86v69.01h-24.59V802.59H654.46z"/>
		<path class="st0" d="M834.89,832.95v-23.84c9.87-5.69,22.92-8.53,39.15-8.53c33.29,0,49.94,16.15,49.94,48.43v80.81h-24.34v-15.06
			c-6.52,10.71-17.99,16.06-34.38,16.06c-12.05,0-21.71-3.47-28.99-10.41c-7.28-6.94-10.92-15.77-10.92-26.48
			c0-12.21,4.6-21.71,13.8-28.48c9.2-6.78,22.08-10.16,38.65-10.16h21.08v-7.28c0-8.7-2.09-15.27-6.27-19.7
			c-4.18-4.43-11.13-6.65-20.83-6.65C858.23,821.66,845.94,825.43,834.89,832.95z M898.89,873.11h-19.07
			c-9.37,0-16.44,1.84-21.21,5.52c-4.77,3.68-7.15,8.37-7.15,14.05c0,5.86,1.84,10.46,5.52,13.8c3.68,3.35,9.03,5.02,16.06,5.02
			c8.03,0,14.34-2.22,18.95-6.65c4.6-4.43,6.9-10.25,6.9-17.44V873.11z"/>
		<path class="st0" d="M982.71,821.66v70.02c0,12.21,5.85,18.32,17.57,18.32c6.86,0,12.63-1.84,17.32-5.52v22.08
			c-5.52,3.01-12.3,4.52-20.33,4.52c-26.27,0-39.4-13.3-39.4-39.9v-69.52h-19.83v-19.07h19.83v-31.12h24.84v31.12h33.38v19.07
			H982.71z"/>
		<path class="st0" d="M1040.8,774.61c-2.93-2.93-4.39-6.56-4.39-10.92c0-4.35,1.46-8.03,4.39-11.04c2.93-3.01,6.56-4.52,10.92-4.52
			c4.35,0,8.03,1.51,11.04,4.52c3.01,3.01,4.52,6.69,4.52,11.04c0,4.18-1.51,7.78-4.52,10.79c-3.01,3.01-6.69,4.52-11.04,4.52
			C1047.36,779,1043.73,777.54,1040.8,774.61z M1039.42,929.82V802.59h24.84v127.24H1039.42z"/>
	</g>
	<g>
		<path class="st0" d="M831.88,268.42v91.85c0,28.41-18.32,53.58-45.34,62.32c-0.1,0.04-0.21,0.06-0.31,0.1l-0.75,0.23
			l-145.25,46.22c-42.93,13.67-86.76-18.37-86.76-63.44v-0.81c0-28.5,18.43-53.73,45.57-62.38c0.02-0.02,0.02-0.02,0.04-0.02
			l0.37-0.12c0.13-0.04,0.29-0.1,0.42-0.13l145.23-46.2l1.44-0.46c0.04-0.02,0.1-0.02,0.13-0.04L831.88,268.42z"/>
		<path class="st1" d="M761.47,547.13v0.81c0,28.5-18.43,53.73-45.57,62.38c-0.02,0.02-0.02,0.02-0.04,0.02l-0.37,0.12
			c-0.13,0.04-0.29,0.1-0.42,0.13l-145.23,46.2l-1.44,0.46c-0.04,0.02-0.1,0.02-0.13,0.04l-85.2,27.12v-91.85
			c0-28.41,18.32-53.58,45.34-62.32c0.1-0.04,0.21-0.06,0.31-0.1l0.75-0.23l145.25-46.22C717.63,470.02,761.47,502.07,761.47,547.13
			z"/>
	</g>
</g>
<text transform="matrix(1 0 0 1 1107.0244 757.5618)" class="st8 st11 st12">R</text>
<g>
	<circle class="st10" cx="1115.47" cy="748.13" r="19.97"/>
</g>
</svg>
