<?xml version="1.0" encoding="utf-8"?>
<!-- Generator: Adobe Illustrator 25.4.1, SVG Export Plug-In . SVG Version: 6.00 Build 0)  -->
<svg version="1.1" id="Layer_1" xmlns="http://www.w3.org/2000/svg" xmlns:xlink="http://www.w3.org/1999/xlink" x="0px" y="0px"
	 viewBox="0 0 1200 1200" style="enable-background:new 0 0 1200 1200;" xml:space="preserve">
<style type="text/css">
	.st0{enable-background:new    ;}
	.st1{fill:#040081;}
	.st2{fill:#FF8109;}
</style>
<g class="st0">
	<path class="st1" d="M422.7,519.1V539c-8.7-5.5-18.6-8.2-29.7-8.2c-7.2,0-12.8,1.6-16.9,4.8c-4.1,3.2-6.2,7.4-6.2,12.6
		c0,5.2,2,9.4,6.1,12.5c4,3.1,10.2,6.5,18.6,10.2c5.5,2.3,9.7,4.4,12.8,6.1c3.1,1.7,6.6,4.1,10.5,7.1c4,3.1,6.9,6.7,8.8,10.9
		c1.9,4.2,2.8,9.1,2.8,14.5c0,11.6-4.1,20.7-12.3,27.3s-18.8,10-31.8,10c-14.5,0-26.4-2.8-35.9-8.4v-20.9
		c10.3,7.7,22.2,11.5,35.7,11.5c7.2,0,12.8-1.7,17-5c4.2-3.3,6.2-7.9,6.2-13.8c0-3.5-1.2-6.7-3.7-9.7c-2.5-2.9-5.1-5.1-8-6.6
		c-2.9-1.5-7.2-3.5-12.9-6.2c-3.4-1.6-5.8-2.7-7.1-3.3c-1.4-0.7-3.6-1.8-6.7-3.5c-3.1-1.7-5.4-3.1-6.9-4.3c-1.5-1.2-3.4-2.8-5.6-4.9
		c-2.2-2.1-3.8-4.2-4.8-6.2c-1-2.1-1.9-4.5-2.7-7.3c-0.8-2.8-1.3-5.8-1.3-9.1c0-11.2,4.1-20,12.2-26.6c8.1-6.5,18.6-9.8,31.5-9.8
		C404.3,512.8,414.4,514.9,422.7,519.1z"/>
	<path class="st1" d="M449.1,570.1v-18.6c7.7-4.4,17.8-6.6,30.5-6.6c25.9,0,38.9,12.6,38.9,37.7v62.9h-18.9v-11.7
		c-5.1,8.3-14,12.5-26.8,12.5c-9.4,0-16.9-2.7-22.6-8.1c-5.7-5.4-8.5-12.3-8.5-20.6c0-9.5,3.6-16.9,10.7-22.2
		c7.2-5.3,17.2-7.9,30.1-7.9h16.4v-5.7c0-6.8-1.6-11.9-4.9-15.3c-3.3-3.4-8.7-5.2-16.2-5.2C467.3,561.3,457.7,564.2,449.1,570.1z
		 M498.9,601.3h-14.8c-7.3,0-12.8,1.4-16.5,4.3c-3.7,2.9-5.6,6.5-5.6,10.9c0,4.6,1.4,8.1,4.3,10.7c2.9,2.6,7,3.9,12.5,3.9
		c6.2,0,11.2-1.7,14.7-5.2c3.6-3.4,5.4-8,5.4-13.6V601.3z"/>
	<path class="st1" d="M557.5,507.4v56c5.6-12.2,15.8-18.4,30.7-18.4c9.6,0,17.4,3,23.2,9c5.9,6,8.8,14.3,8.8,25v66.4H601v-62.5
		c0-6.8-1.7-12-5.2-15.7c-3.5-3.7-8-5.6-13.6-5.6c-6.5,0-12.3,2.5-17.3,7.4c-5,4.9-7.5,12.5-7.5,22.7v53.7h-19.1V507.4H557.5z"/>
	<path class="st1" d="M642.4,570.1v-18.6c7.7-4.4,17.8-6.6,30.5-6.6c25.9,0,38.9,12.6,38.9,37.7v62.9h-18.9v-11.7
		c-5.1,8.3-14,12.5-26.8,12.5c-9.4,0-16.9-2.7-22.6-8.1c-5.7-5.4-8.5-12.3-8.5-20.6c0-9.5,3.6-16.9,10.7-22.2
		c7.2-5.3,17.2-7.9,30.1-7.9h16.4v-5.7c0-6.8-1.6-11.9-4.9-15.3c-3.3-3.4-8.7-5.2-16.2-5.2C660.6,561.3,651,564.2,642.4,570.1z
		 M692.2,601.3h-14.8c-7.3,0-12.8,1.4-16.5,4.3c-3.7,2.9-5.6,6.5-5.6,10.9c0,4.6,1.4,8.1,4.3,10.7c2.9,2.6,7,3.9,12.5,3.9
		c6.2,0,11.2-1.7,14.7-5.2c3.6-3.4,5.4-8,5.4-13.6V601.3z"/>
	<path class="st1" d="M750.8,546.4v15.8c5.6-11.5,14.9-17.2,27.9-17.2c14.8,0,24.3,6.4,28.5,19.1c2.7-6.1,6.7-10.8,11.9-14.2
		c5.2-3.3,11.1-5,17.6-5c10.2,0,17.9,3,23.1,9c5.3,6,7.9,14.3,7.9,24.8v66.6h-19.1v-62.5c0-14.2-5.7-21.3-17.2-21.3
		c-5.7,0-10.8,2.5-15.3,7.6c-4.5,5.1-6.7,12.6-6.7,22.5v53.7h-19.1v-62.5c0-14.2-5.8-21.3-17.4-21.3c-5.6,0-10.7,2.5-15.2,7.6
		c-4.6,5.1-6.8,12.6-6.8,22.5v53.7h-19.1v-99H750.8z"/>
	<path class="st1" d="M890.3,570.1v-18.6c7.7-4.4,17.8-6.6,30.5-6.6c25.9,0,38.9,12.6,38.9,37.7v62.9h-18.9v-11.7
		c-5.1,8.3-14,12.5-26.8,12.5c-9.4,0-16.9-2.7-22.6-8.1c-5.7-5.4-8.5-12.3-8.5-20.6c0-9.5,3.6-16.9,10.7-22.2
		c7.2-5.3,17.2-7.9,30.1-7.9h16.4v-5.7c0-6.8-1.6-11.9-4.9-15.3c-3.3-3.4-8.7-5.2-16.2-5.2C908.4,561.3,898.8,564.2,890.3,570.1z
		 M940.1,601.3h-14.8c-7.3,0-12.8,1.4-16.5,4.3c-3.7,2.9-5.6,6.5-5.6,10.9c0,4.6,1.4,8.1,4.3,10.7c2.9,2.6,7,3.9,12.5,3.9
		c6.2,0,11.2-1.7,14.7-5.2c3.6-3.4,5.4-8,5.4-13.6V601.3z"/>
	<path class="st1" d="M1004.3,561.3v54.5c0,9.5,4.6,14.3,13.7,14.3c5.3,0,9.8-1.4,13.5-4.3v17.2c-4.3,2.3-9.6,3.5-15.8,3.5
		c-20.4,0-30.7-10.4-30.7-31.1v-54.1h-15.4v-14.8H985v-24.2h19.3v24.2h26v14.8H1004.3z"/>
	<path class="st1" d="M1048.5,524.7c-2.3-2.3-3.4-5.1-3.4-8.5c0-3.4,1.1-6.2,3.4-8.6c2.3-2.3,5.1-3.5,8.5-3.5c3.4,0,6.2,1.2,8.6,3.5
		c2.3,2.3,3.5,5.2,3.5,8.6c0,3.3-1.2,6.1-3.5,8.4c-2.3,2.3-5.2,3.5-8.6,3.5C1053.6,528.1,1050.8,526.9,1048.5,524.7z M1047.5,645.4
		v-99h19.3v99H1047.5z"/>
</g>
<g class="st0">
	<path class="st1" d="M1113.4,528.6l-4-6.5h-2.3v6.5h-2.6v-17.2h4.8c2,0,3.5,0.5,4.6,1.4c1.1,1,1.6,2.3,1.6,3.9
		c0,1.2-0.3,2.2-0.9,3.1s-1.4,1.5-2.5,1.8l4.5,6.9H1113.4z M1107.1,513.6v6.3h2.4c1.1,0,1.9-0.3,2.5-0.9c0.6-0.6,0.8-1.3,0.8-2.3
		c0-2.1-1.1-3.1-3.4-3.1H1107.1z"/>
</g>
<g>
	<g>
		<path class="st1" d="M313.2,428.5c0,0.7,0,1.4,0,2c0,23.2,0,46.4,0,69.6c0,20.8-13.2,40-32.8,47.1c-9.5,3.4-19.2,6.2-28.8,9.3
			c-20.9,6.7-41.9,13.3-62.8,20c-9.3,2.9-18.5,6.2-27.9,8.7c-22.7,5.9-47.5-5.8-57.9-26.7c-3.8-7.6-5.7-15.7-5.6-24.1
			c0.2-22.7,14.4-41.7,36.1-48.6c34.7-11,69.3-22.1,103.9-33.1c25.1-8,50.1-16,75.2-23.9C312.7,428.6,312.9,428.6,313.2,428.5z"/>
	</g>
	<g>
		<path class="st2" d="M45,747.8c0-0.7,0-1.4,0-2c0-23,0-46,0-69.1C45,656,58.1,637,77.5,630c9.4-3.4,19.1-6.2,28.6-9.2
			c20.8-6.6,41.6-13.2,62.3-19.8c9.2-2.9,18.4-6.2,27.7-8.6c22.5-5.9,47.2,5.7,57.5,26.5c3.8,7.6,5.6,15.5,5.6,24
			c-0.2,22.6-14.3,41.4-35.9,48.3c-34.4,10.9-68.8,21.9-103.2,32.8c-24.9,7.9-49.8,15.8-74.7,23.8C45.4,747.7,45.3,747.7,45,747.8z"
			/>
	</g>
</g>
<g>
	<g>
		<path class="st1" d="M1109.5,538.8c-9.9,0-18-8.1-18-18c0-9.9,8.1-18,18-18s18,8.1,18,18C1127.6,530.7,1119.5,538.8,1109.5,538.8z
			 M1109.5,505.9c-8.2,0-14.9,6.7-14.9,14.9c0,8.2,6.7,14.9,14.9,14.9s14.9-6.7,14.9-14.9C1124.5,512.6,1117.8,505.9,1109.5,505.9z"
			/>
	</g>
</g>
</svg>
