<svg xmlns:xlink="http://www.w3.org/1999/xlink" xmlns="http://www.w3.org/2000/svg" xml:space="preserve" style="max-height: 500px" y="0px" x="0px" id="Layer_1" version="1.1" viewBox="76.76 338.75 1012.82 663.17">
<style type="text/css">
	.st0{fill:#000080;}
	.st1{fill:#F78028;}
	.st2{fill:#FFFFFF;}
	.st3{fill:none;stroke:#FFFFFF;stroke-width:4;stroke-miterlimit:10;}
	.st4{fill:none;stroke:#FFFFFF;stroke-width:3.0823;stroke-miterlimit:10;}
	.st5{fill:#231F20;}
	.st6{fill:none;stroke:#000000;stroke-width:3.0823;stroke-miterlimit:10;}
	.st7{fill:none;stroke:#000000;stroke-width:4;stroke-miterlimit:10;}
	.st8{fill:#040081;}
	.st9{fill:#FF8109;}
	.st10{fill:none;stroke:#040081;stroke-width:3.0823;stroke-miterlimit:10;}
	.st11{fill:none;stroke:#231F20;stroke-width:3;stroke-miterlimit:10;}
</style>
<path d="M171.89,837.79v25.6c-11.21-7.03-23.93-10.54-38.15-10.54c-9.2,0-16.44,2.05-21.71,6.15  c-5.27,4.1-7.91,9.5-7.91,16.19c0,6.69,2.59,12.05,7.78,16.06c5.18,4.02,13.13,8.37,23.84,13.05c7.03,3.01,12.5,5.61,16.44,7.78  c3.93,2.18,8.45,5.23,13.55,9.16c5.1,3.93,8.87,8.62,11.29,14.05c2.42,5.44,3.64,11.67,3.64,18.7c0,14.89-5.27,26.6-15.81,35.13  c-10.54,8.53-24.18,12.8-40.91,12.8c-18.57,0-33.97-3.6-46.18-10.79v-26.85c13.21,9.87,28.52,14.81,45.93,14.81  c9.2,0,16.48-2.13,21.83-6.4c5.35-4.27,8.03-10.16,8.03-17.69c0-4.52-1.59-8.66-4.77-12.42c-3.18-3.76-6.61-6.61-10.29-8.53  c-3.68-1.92-9.2-4.56-16.56-7.91c-4.35-2.01-7.4-3.43-9.16-4.27c-1.76-0.84-4.64-2.34-8.66-4.52c-4.02-2.17-6.99-4.02-8.91-5.52  c-1.93-1.51-4.31-3.6-7.15-6.27c-2.85-2.67-4.89-5.35-6.15-8.03c-1.25-2.67-2.43-5.81-3.51-9.41c-1.09-3.6-1.63-7.49-1.63-11.67  c0-14.39,5.23-25.76,15.68-34.13c10.45-8.36,23.97-12.55,40.53-12.55C148.22,829.76,161.18,832.44,171.89,837.79z" class="st2"/>
<path d="M207.03,903.29v-23.84c9.87-5.69,22.92-8.53,39.15-8.53c33.29,0,49.94,16.15,49.94,48.43v80.81h-24.34V985.1  c-6.52,10.71-17.99,16.06-34.38,16.06c-12.05,0-21.71-3.47-28.99-10.41c-7.28-6.94-10.92-15.77-10.92-26.48  c0-12.21,4.6-21.71,13.8-28.48c9.2-6.78,22.08-10.16,38.65-10.16h21.08v-7.28c0-8.7-2.09-15.27-6.27-19.7  c-4.18-4.43-11.13-6.65-20.83-6.65C230.37,891.99,218.07,895.76,207.03,903.29z M271.02,943.44h-19.07  c-9.37,0-16.44,1.84-21.21,5.52c-4.77,3.68-7.15,8.37-7.15,14.05c0,5.86,1.84,10.46,5.52,13.8c3.68,3.35,9.03,5.02,16.06,5.02  c8.03,0,14.34-2.22,18.95-6.65c4.6-4.43,6.9-10.25,6.9-17.44V943.44z" class="st2"/>
<path d="M347.56,822.73v72.02c7.19-15.72,20.33-23.59,39.4-23.59c12.38,0,22.34,3.85,29.86,11.54  c7.53,7.7,11.29,18.41,11.29,32.12v85.33h-24.59v-80.31c0-8.7-2.22-15.43-6.65-20.2c-4.43-4.77-10.25-7.15-17.44-7.15  c-8.37,0-15.77,3.18-22.21,9.54c-6.44,6.36-9.66,16.06-9.66,29.11v69.01h-24.59V822.73H347.56z" class="st2"/>
<path d="M457.98,903.29v-23.84c9.87-5.69,22.92-8.53,39.15-8.53c33.29,0,49.94,16.15,49.94,48.43v80.81h-24.34V985.1  c-6.52,10.71-17.99,16.06-34.38,16.06c-12.05,0-21.71-3.47-28.99-10.41c-7.28-6.94-10.92-15.77-10.92-26.48  c0-12.21,4.6-21.71,13.8-28.48c9.2-6.78,22.08-10.16,38.65-10.16h21.08v-7.28c0-8.7-2.09-15.27-6.27-19.7  c-4.18-4.43-11.13-6.65-20.83-6.65C481.32,891.99,469.02,895.76,457.98,903.29z M521.98,943.44H502.9c-9.37,0-16.44,1.84-21.21,5.52  c-4.77,3.68-7.15,8.37-7.15,14.05c0,5.86,1.84,10.46,5.52,13.8c3.68,3.35,9.03,5.02,16.06,5.02c8.03,0,14.34-2.22,18.95-6.65  c4.6-4.43,6.9-10.25,6.9-17.44V943.44z" class="st2"/>
<path d="M598.52,872.92v20.33c7.19-14.72,19.16-22.08,35.89-22.08c19.07,0,31.28,8.2,36.64,24.59  c3.51-7.86,8.61-13.93,15.31-18.19c6.69-4.27,14.22-6.4,22.59-6.4c13.05,0,22.96,3.85,29.74,11.54c6.78,7.7,10.16,18.32,10.16,31.87  v85.58h-24.59v-80.31c0-18.23-7.36-27.35-22.08-27.35c-7.36,0-13.93,3.26-19.7,9.79s-8.66,16.15-8.66,28.86v69.01h-24.59v-80.31  c0-18.23-7.45-27.35-22.34-27.35c-7.2,0-13.72,3.26-19.57,9.79c-5.86,6.52-8.78,16.15-8.78,28.86v69.01h-24.59V872.92H598.52z" class="st2"/>
<path d="M778.95,903.29v-23.84c9.87-5.69,22.92-8.53,39.15-8.53c33.29,0,49.94,16.15,49.94,48.43v80.81H843.7V985.1  c-6.52,10.71-17.99,16.06-34.38,16.06c-12.05,0-21.71-3.47-28.99-10.41c-7.28-6.94-10.92-15.77-10.92-26.48  c0-12.21,4.6-21.71,13.8-28.48c9.2-6.78,22.08-10.16,38.65-10.16h21.08v-7.28c0-8.7-2.09-15.27-6.27-19.7  c-4.18-4.43-11.13-6.65-20.83-6.65C802.29,891.99,789.99,895.76,778.95,903.29z M842.94,943.44h-19.07  c-9.37,0-16.44,1.84-21.21,5.52c-4.77,3.68-7.15,8.37-7.15,14.05c0,5.86,1.84,10.46,5.52,13.8c3.68,3.35,9.03,5.02,16.06,5.02  c8.03,0,14.34-2.22,18.95-6.65c4.6-4.43,6.9-10.25,6.9-17.44V943.44z" class="st2"/>
<path d="M926.76,891.99v70.02c0,12.21,5.85,18.32,17.57,18.32c6.86,0,12.63-1.84,17.32-5.52v22.08  c-5.52,3.01-12.3,4.52-20.33,4.52c-26.27,0-39.4-13.3-39.4-39.9v-69.52h-19.83v-19.07h19.83V841.8h24.84v31.12h33.38v19.07H926.76z" class="st2"/>
<path d="M984.86,844.94c-2.93-2.93-4.39-6.56-4.39-10.92c0-4.35,1.46-8.03,4.39-11.04c2.93-3.01,6.56-4.52,10.92-4.52  c4.35,0,8.03,1.51,11.04,4.52s4.52,6.69,4.52,11.04c0,4.18-1.51,7.78-4.52,10.79c-3.01,3.01-6.69,4.52-11.04,4.52  C991.42,849.33,987.78,847.87,984.86,844.94z M983.48,1000.16V872.92h24.84v127.24H983.48z" class="st2"/>
<path d="M775.93,338.75v91.85c0,28.41-18.32,53.58-45.34,62.32c-0.1,0.04-0.21,0.06-0.31,0.1l-0.75,0.23l-145.25,46.22  c-42.93,13.67-86.76-18.37-86.76-63.44v-0.81c0-28.5,18.43-53.73,45.57-62.38c0.02-0.02,0.02-0.02,0.04-0.02l0.37-0.12  c0.13-0.04,0.29-0.1,0.42-0.13l145.23-46.2l1.44-0.46c0.04-0.02,0.1-0.02,0.13-0.04L775.93,338.75z" class="st2"/>
<path d="M705.52,617.47v0.81c0,28.5-18.43,53.73-45.57,62.38c-0.02,0.02-0.02,0.02-0.04,0.02l-0.37,0.12  c-0.13,0.04-0.29,0.1-0.42,0.13l-145.23,46.2l-1.44,0.46c-0.04,0.02-0.1,0.02-0.13,0.04l-85.2,27.12V662.9  c0-28.41,18.32-53.58,45.34-62.32c0.1-0.04,0.21-0.06,0.31-0.1l0.75-0.23l145.25-46.22C661.69,540.35,705.52,572.4,705.52,617.47z" class="st2"/>
<circle r="21.36" cy="839.8" cx="1066.22" class="st3"/>
<g>
	<g>
		<path d="M1072.8,853.68l-6.5-10.54h-3.66v10.54h-4.24v-27.75h7.74c3.18,0,5.64,0.78,7.37,2.33    c1.73,1.55,2.59,3.66,2.59,6.32c-0.03,1.95-0.52,3.6-1.48,4.96c-0.96,1.36-2.29,2.34-3.99,2.94l7.25,11.2H1072.8z M1062.64,829.47    v10.13h3.83c1.76,0,3.09-0.46,3.99-1.38c0.91-0.92,1.36-2.15,1.36-3.68c0-3.38-1.85-5.06-5.56-5.06H1062.64z" class="st2"/>
	</g>
</g>
</svg>