<?xml version="1.0" encoding="utf-8"?>
<!-- Generator: Adobe Illustrator 24.1.2, SVG Export Plug-In . SVG Version: 6.00 Build 0)  -->
<svg version="1.1" id="Layer_1" xmlns="http://www.w3.org/2000/svg" xmlns:xlink="http://www.w3.org/1999/xlink" x="0px" y="0px"
	 viewBox="0 0 32 32" style="enable-background:new 0 0 32 32;" xml:space="preserve">
<style type="text/css">
	.st0{fill:#000080;}
	.st1{fill:#FF8827;}
</style>
<g>
	<g>
		<path class="st0" d="M29.29,0v7.07c0,2.19-1.41,4.12-3.49,4.79c-0.01,0-0.02,0-0.02,0.01l-0.06,0.02l-11.17,3.56
			c-3.3,1.05-6.67-1.41-6.67-4.88V10.5c0-2.19,1.42-4.13,3.51-4.8c0,0,0,0,0,0l0.03-0.01c0.01,0,0.02-0.01,0.03-0.01l11.17-3.55
			l0.11-0.04c0,0,0.01,0,0.01,0L29.29,0z"/>
		<path class="st1" d="M23.88,21.44v0.06c0,2.19-1.42,4.13-3.51,4.8c0,0,0,0,0,0l-0.03,0.01c-0.01,0-0.02,0.01-0.03,0.01L9.13,29.88
			l-0.11,0.04c0,0-0.01,0-0.01,0L2.46,32v-7.07c0-2.19,1.41-4.12,3.49-4.79c0.01,0,0.02,0,0.02-0.01l0.06-0.02l11.17-3.56
			C20.5,15.51,23.88,17.97,23.88,21.44z"/>
	</g>
</g>
</svg>
